<?xml version="1.0" encoding="utf-8"?>
<!-- Generator: Adobe Illustrator 23.0.1, SVG Export Plug-In . SVG Version: 6.00 Build 0) -->
<svg version="1.1" xmlns="http://www.w3.org/2000/svg" xmlns:xlink="http://www.w3.org/1999/xlink" width="733.2px" height="547.3px" viewBox="0 0 733.2 547.3" xml:space="preserve">
	<path fill="none" stroke="#000000" stroke-width="2" stroke-linejoin="round" stroke-miterlimit="10" d="M442.4,441.9
	c0-3.4,2.7-6.1,6.1-6.1h158.8c3.4,0,6.1,2.7,6.1,6.1v87.8c0,3.4-2.7,6.1-6.1,6.1H448.5c-3.4,0-6.1-2.7-6.1-6.1V441.9z"/>
	<path fill="none" stroke="#000000" stroke-width="2" stroke-linejoin="round" stroke-miterlimit="10" d="M133.4,43.4
	c0-11.4,9.2-20.6,20.6-20.6h446.7c11.4,0,20.6,9.2,20.6,20.6v295.7c0,11.4-9.2,20.6-20.6,20.6H154c-11.4,0-20.6-9.2-20.6-20.6V43.4z
	"/>
	<path
		fill="none"
		stroke="#000000"
		stroke-width="2"
		stroke-linejoin="round"
		stroke-miterlimit="10"
		stroke-dasharray="8,6"
		d="
	M418.4,84.6c0-6.5,5.3-11.8,11.8-11.8h173.4c6.5,0,11.8,5.3,11.8,11.8V254c0,6.5-5.3,11.8-11.8,11.8H430.2
	c-6.5,0-11.8-5.3-11.8-11.8V84.6z"/>
	<text transform="matrix(1 0 0 1 16.5705 86.7757)" font-size="10px">Customers</text>
	<rect x="15.9" y="93.3" fill="none" stroke="#000000" stroke-linejoin="round" stroke-miterlimit="10" width="78" height="38"/>
	<path fill="none" stroke="#000000" stroke-linejoin="round" stroke-miterlimit="10" d="M122.6,89.8l-15.6,46 M107.1,89.8l15.6,46"/>
	<ellipse fill="none" stroke="#000000" stroke-linejoin="round" stroke-miterlimit="10" cx="114.9" cy="112.8" rx="11" ry="32.5"/>
	<rect x="146.9" y="81.3" fill="none" stroke="#000000" stroke-linejoin="round" stroke-miterlimit="10" width="78" height="63"/>
	<rect x="146.9" y="168.3" fill="none" stroke="#000000" stroke-linejoin="round" stroke-miterlimit="10" width="78" height="40"/>
	<path fill="none" stroke="#000000" stroke-linejoin="round" stroke-miterlimit="10" d="M224.9,238.6c0,3.5-17.5,6.3-39,6.3
	s-39-2.8-39-6.3"/>
	<path fill="none" stroke="#000000" stroke-linejoin="round" stroke-miterlimit="10" d="M146.9,238.6c0-3.5,17.5-6.3,39-6.3
	s39,2.8,39,6.3v25.3c0,3.5-17.5,6.3-39,6.3s-39-2.8-39-6.3V238.6z"/>
	<rect x="246.9" y="81.3" fill="none" stroke="#000000" stroke-linejoin="round" stroke-miterlimit="10" width="113" height="28"/>
	<rect x="246.9" y="116.3" fill="none" stroke="#000000" stroke-linejoin="round" stroke-miterlimit="10" width="95" height="28"/>
	<path fill="none" stroke="#000000" stroke-linejoin="round" stroke-miterlimit="10" d="M362.9,174.6c0,3.5-25.3,6.3-56.5,6.3
	s-56.5-2.8-56.5-6.3"/>
	<path fill="none" stroke="#000000" stroke-linejoin="round" stroke-miterlimit="10" d="M249.9,174.6c0-3.5,25.3-6.3,56.5-6.3
	s56.5,2.8,56.5,6.3v25.3c0,3.5-25.3,6.3-56.5,6.3s-56.5-2.8-56.5-6.3V174.6z"/>
	<rect x="249.9" y="254.3" fill="none" stroke="#000000" stroke-linejoin="round" stroke-miterlimit="10" width="113" height="40"/>
	<rect x="249.9" y="315.3" fill="none" stroke="#000000" stroke-linejoin="round" stroke-miterlimit="10" width="113" height="35"/>
	<path fill="none" stroke="#000000" stroke-linejoin="round" stroke-miterlimit="10" d="M224.9,320.4c0,3.4-17.5,6.2-39,6.2
	s-39-2.8-39-6.2"/>
	<path fill="none" stroke="#000000" stroke-linejoin="round" stroke-miterlimit="10" d="M146.9,320.4c0-3.4,17.5-6.2,39-6.2
	s39,2.8,39,6.2v24.7c0,3.4-17.5,6.2-39,6.2s-39-2.8-39-6.2V320.4z"/>
	<rect x="461.9" y="122.3" fill="none" stroke="#000000" stroke-linejoin="round" stroke-miterlimit="10" width="145" height="28"/>
	<text transform="matrix(1 0 0 1 469.3628 139.7757)" font-size="10px">Transaction Signing Function</text>
	<rect x="461.9" y="82.3" fill="none" stroke="#000000" stroke-linejoin="round" stroke-miterlimit="10" width="71" height="27"/>
	<rect x="535.9" y="82.3" fill="none" stroke="#000000" stroke-linejoin="round" stroke-miterlimit="10" width="71" height="27"/>
	<rect x="427.9" y="35.3" fill="none" stroke="#000000" stroke-linejoin="round" stroke-miterlimit="10" width="86" height="28"/>
	<rect x="543.9" y="35.3" fill="none" stroke="#000000" stroke-linejoin="round" stroke-miterlimit="10" width="65" height="28"/>
	<path d="M140.9,109.3l6-3l-6-3L140.9,109.3z M93.9,106.9l48.1-0.1l0-1l-48.1,0.1L93.9,106.9z"/>
	<path d="M99.9,120.3l-6-3l6-3L99.9,120.3z M147.1,117.8l-48.2,0v-1l48.2,0V117.8z"/>
	<path d="M188.9,162.5l-3,6l-3-6H188.9z M182.9,150.3l3-6l3,6H182.9z M186.4,149.3l0,14.2h-1l0-14.2H186.4z"/>
	<path d="M188.9,226.2l-3,6l-3-6H188.9z M182.9,214.3l3-6l3,6H182.9z M186.4,213.3l0,13.9h-1l0-13.9H186.4z"/>
	<path d="M345.9,115.3l3-6l3,6H345.9z M351.9,164.3l-3,6l-3-6L351.9,164.3z M348.4,165.3l0-51h1l0,51H348.4z"/>
	<path d="M302.9,150.3l3-6l3,6H302.9z M308.9,162.3l-3,6l-3-6L308.9,162.3z M305.4,163.3l0-14h1l0,14H305.4z"/>
	<path d="M302.9,212.3l3-6l3,6H302.9z M308.9,248.1l-3,6l-3-6H308.9z M305.4,249.1l0-37.9h1l0,37.9H305.4z"/>
	<path d="M302.9,300.3l3-6l3,6H302.9z M308.9,309.5l-3,6l-3-6H308.9z M305.4,310.5l0-11.2h1l0,11.2H305.4z"/>
	<path d="M230.9,335.3l-6-3l6-3V335.3z M243.4,329.3l6,3l-6,3V329.3z M244.4,332.8l-14.6,0v-1l14.6,0V332.8z"/>
	<path fill="none" stroke="#000000" stroke-linejoin="round" stroke-miterlimit="10" d="M513.9,182.6c0,3.5-19.3,6.3-43,6.3
	c-23.7,0-43-2.8-43-6.3"/>
	<path fill="none" stroke="#000000" stroke-linejoin="round" stroke-miterlimit="10" d="M427.9,182.6c0-3.5,19.3-6.3,43-6.3
	c23.7,0,43,2.8,43,6.3v25.3c0,3.5-19.3,6.3-43,6.3c-23.7,0-43-2.8-43-6.3V182.6z"/>
	<path fill="none" stroke="#000000" stroke-linejoin="round" stroke-miterlimit="10" d="M607.9,182.6c0,3.5-19.3,6.3-43,6.3
	c-23.7,0-43-2.8-43-6.3"/>
	<path fill="none" stroke="#000000" stroke-linejoin="round" stroke-miterlimit="10" d="M521.9,182.6c0-3.5,19.3-6.3,43-6.3
	c23.7,0,43,2.8,43,6.3v25.3c0,3.5-19.3,6.3-43,6.3c-23.7,0-43-2.8-43-6.3V182.6z"/>
	<text transform="matrix(1 0 0 1 533.8929 202.2755)" font-size="10px">Signture Keys</text>
	<rect x="429.9" y="232.3" fill="none" stroke="#000000" stroke-linejoin="round" stroke-miterlimit="10" width="180" height="22"/>
	<text transform="matrix(1 0 0 1 487.0297 246.7757)" font-size="10px">Key Generator</text>
	<path d="M568.1,156.3l-2.9-6l-3.1,6L568.1,156.3z M561.9,170.4l2.9,6l3.1-6L561.9,170.4z M565.4,171.4l0.2-16.2l-1,0l-0.2,16.2
	L565.4,171.4z"/>
	<path d="M519.9,52.3l-6-3l6-3V52.3z M544.1,49.8l-25.2,0v-1l25.2,0V49.8z"/>
	<path d="M455.2,86.3l6,3l-6,3V86.3z M359.9,88.8l96.3,0v1l-96.3,0V88.8z"/>
	<path d="M449.9,171.8l-3,6l-3-6H449.9z M447.4,63.3l0,109.6h-1l0-109.6H447.4z"/>
	<path d="M356.9,165l-3,6l-3-6H356.9z M438.1,63.3v53.9c0,0.3-0.2,0.5-0.5,0.5h-83.8l0.5-0.5V166h-1v-48.9c0-0.3,0.2-0.5,0.5-0.5
	h83.8l-0.5,0.5V63.3H438.1z"/>
	<path d="M522.6,260.3l-3-6l-3,6H522.6z M362.9,284.2h156.7c0.3,0,0.5-0.2,0.5-0.5v-24.4h-1v24.4l0.5-0.5H362.9V284.2z"/>
	<path d="M455.8,98.3l6-3l-6-3V98.3z M362.9,274.3h49.5c0.3,0,0.5-0.2,0.5-0.5V95.3l-0.5,0.5h44.5v-1h-44.5c-0.3,0-0.5,0.2-0.5,0.5
	v178.5l0.5-0.5h-49.5V274.3z"/>
	<text transform="matrix(1 0 0 1 144.2989 17.7757)" font-size="10px">Cryptoassets Custodians System</text>
	<path d="M662.4,46.3l6,3l-6,3L662.4,46.3z M608.9,48.8l54.5,0.1l0,1l-54.5-0.1L608.9,48.8z"/>
	<path d="M654.4,92.4l6,3l-6,3L654.4,92.4z M606.9,94.8l48.6,0.2l0,1l-48.6-0.2L606.9,94.8z"/>
	<text transform="matrix(1 0 0 1 660.6772 23.7757)" font-size="10px">Blockchain</text>
	<path d="M230.9,133.3l-6-3l6-3V133.3z M240.7,127.3l6,3l-6,3V127.3z M241.7,130.8l-11.8,0v-1l11.8,0V130.8z"/>
	<text transform="matrix(1 0 0 1 249.5784 249.7757)" font-size="10px">Operators</text>
	<path d="M230.9,92.4l-6,3l6,3L230.9,92.4z M240.7,98.3l6-3l-6-3L240.7,98.3z M241.6,94.8l-11.8,0.1l0,1l11.8-0.1L241.6,94.8z"/>
	<rect x="455.9" y="446.3" fill="none" stroke="#000000" stroke-linejoin="round" stroke-miterlimit="10" width="145" height="28"/>
	<text transform="matrix(1 0 0 1 463.3628 463.7757)" font-size="10px">Transaction Signing Function</text>
	<rect x="454.9" y="375.3" fill="none" stroke="#000000" stroke-linejoin="round" stroke-miterlimit="10" width="72" height="28"/>
	<rect x="529.9" y="375.3" fill="none" stroke="#000000" stroke-linejoin="round" stroke-miterlimit="10" width="71" height="28"/>
	<path fill="none" stroke="#000000" stroke-linejoin="round" stroke-miterlimit="10" d="M600.9,496.4c0,3.4-32.5,6.2-72.5,6.2
	c-40,0-72.5-2.8-72.5-6.2"/>
	<path fill="none" stroke="#000000" stroke-linejoin="round" stroke-miterlimit="10" d="M455.9,496.4c0-3.4,32.5-6.2,72.5-6.2
	c40,0,72.5,2.8,72.5,6.2v24.7c0,3.4-32.5,6.2-72.5,6.2c-40,0-72.5-2.8-72.5-6.2V496.4z"/>
	<text transform="matrix(1 0 0 1 467.3284 514.7758)" font-size="9px">Signature Key Mgmt. Function</text>
	<text transform="matrix(1 0 0 1 368.1965 382.7757)" font-size="8px">Instruct to transfer</text>
	<path d="M524.9,480.3l3-6l3,6L524.9,480.3z M530.9,484.3l-3,6l-3-6L530.9,484.3z M527.4,485.3l0-6l1,0l0,6L527.4,485.3z"/>
	<path d="M449.2,386.3l6,3l-6,3V386.3z M354.9,388.8l95.3,0v1l-95.3,0V388.8z"/>
	<path d="M648.4,386.4l6,3l-6,3L648.4,386.4z M600.9,388.8l48.6,0.2l0,1l-48.6-0.2L600.9,388.8z"/>
	<text transform="matrix(1 0 0 1 391.0705 428.7757)" font-size="10px">Offline Management</text>
	<path
		fill="none"
		stroke="#000000"
		stroke-linejoin="round"
		stroke-miterlimit="10"
		d="M696.6,75.2c7.5-5.5,14.3,22.9,15.3,63.6
	c0.4,16.5-0.2,33.2-1.7,47.5c5.3,15.2,7.2,50.7,4.5,79.3c-0.5,5-1.1,9.6-1.8,13.6c4.4,11.8,6.1,40.7,3.9,64.4
	c-0.6,6.6-1.5,12.3-2.5,16.7c4.1,19.1,4.6,52.8,1.1,75.3c-1.5,9.5-3.5,15.8-5.7,18c-1.6,31.2-7.5,49.7-13.2,41.2
	c-0.5-0.7-1-1.6-1.4-2.7c-6,25.1-14.6,18.9-19.2-13.7c-1.4-10.2-2.4-22.2-2.7-34.8c-6.4-0.3-11.6-29-11.6-64.1
	c0-11.7,0.6-23.2,1.8-33.2c-7.2-11.9-11.3-53.3-9.1-92.6c0.9-16.4,2.9-30.7,5.5-40.2c-4.4-40.2-2.1-92.3,5.3-116.5
	c0.1-0.3,0.2-0.6,0.3-0.9c-0.6-26.3,2.9-50.1,7.7-53.2c2.6-1.6,5.1,3,7,12.6c2.5-22.8,7.9-30.4,12.1-17.1c2.4,7.7,4,21.2,4.3,36.3
	L696.6,75.2z"/>
	<path
		fill="none"
		stroke="#000000"
		stroke-linejoin="round"
		stroke-miterlimit="10"
		d="M694.5,77.7c0.7-1.1,1.4-2,2.1-2.5
	 M710.2,186.2c-0.6,5.2-1.2,10-2,14.3 M710.9,275.7c0.7,0.8,1.4,2.2,2.1,3.9 M712,352c0.9,2.1,1.7,4.8,2.4,8.2 M709.8,453.7
	c-0.6,0.6-1.2,0.9-1.9,0.8 M695.1,491.9c-1.5-3.6-2.9-9-4-15.9 M683.9,407.5c-2,22-6.1,35.9-10.6,35.8 M666.4,349.2
	c-1-0.4-1.9-1.4-2.8-2.9 M660,213.5c0.8-2.9,1.7-5.4,2.6-7.3 M666.2,108.5c-0.3-3.9-0.5-8-0.6-12.2 M679.1,83.9
	c-0.1-9.7,0.3-19.4,1.2-27.9"/>
	<rect x="678.9" y="66.8" fill="#FFFFFF" width="13.5" height="13.5"/>
	<polygon fill="none" points="692.4,66.8 696.9,62.3 696.9,75.8 692.4,80.3 "/>
	<polygon fill="#FFFFFF" points="678.9,66.8 683.4,62.3 696.9,62.3 692.4,66.8 "/>
	<path fill="none" stroke="#000000" stroke-miterlimit="8" d="M692.4,66.8v13.5 M678.9,66.8h13.5l4.5-4.5 M678.9,66.8l4.5-4.5h13.5
	v13.5l-4.5,4.5h-13.5V66.8z"/>
	<rect x="678.9" y="90.8" fill="#FFFFFF" width="13.5" height="13.5"/>
	<polygon fill="none" points="692.4,90.8 696.9,86.3 696.9,99.8 692.4,104.3 "/>
	<polygon fill="#FFFFFF" points="678.9,90.8 683.4,86.3 696.9,86.3 692.4,90.8 "/>
	<path fill="none" stroke="#000000" stroke-miterlimit="8" d="M692.4,90.8v13.5 M678.9,90.8h13.5l4.5-4.5 M678.9,90.8l4.5-4.5h13.5
	v13.5l-4.5,4.5h-13.5V90.8z"/>
	<line fill="none" stroke="#000000" stroke-linejoin="round" stroke-miterlimit="10" x1="684.9" y1="80.3" x2="684.9" y2="90.5"/>
	<rect x="678.9" y="114.8" fill="#FFFFFF" width="13.5" height="13.5"/>
	<polygon fill="none" points="692.4,114.8 696.9,110.3 696.9,123.8 692.4,128.3 "/>
	<polygon fill="#FFFFFF" points="678.9,114.8 683.4,110.3 696.9,110.3 692.4,114.8 "/>
	<path fill="none" stroke="#000000" stroke-miterlimit="8" d="M692.4,114.8v13.5 M678.9,114.8h13.5l4.5-4.5 M678.9,114.8l4.5-4.5
	h13.5v13.5l-4.5,4.5h-13.5V114.8z"/>
	<rect x="678.9" y="138.8" fill="#FFFFFF" width="13.5" height="13.5"/>
	<polygon fill="none" points="692.4,138.8 696.9,134.3 696.9,147.8 692.4,152.3 "/>
	<polygon fill="#FFFFFF" points="678.9,138.8 683.4,134.3 696.9,134.3 692.4,138.8 "/>
	<path fill="none" stroke="#000000" stroke-miterlimit="8" d="M692.4,138.8v13.5 M678.9,138.8h13.5l4.5-4.5 M678.9,138.8l4.5-4.5
	h13.5v13.5l-4.5,4.5h-13.5V138.8z"/>
	<line fill="none" stroke="#000000" stroke-linejoin="round" stroke-miterlimit="10" x1="684.9" y1="104.3" x2="684.9" y2="114.5"/>
	<line fill="none" stroke="#000000" stroke-linejoin="round" stroke-miterlimit="10" x1="684.9" y1="128.3" x2="684.9" y2="138.5"/>
	<rect x="678.9" y="162.8" fill="#FFFFFF" width="13.5" height="13.5"/>
	<polygon fill="none" points="692.4,162.8 696.9,158.3 696.9,171.8 692.4,176.3 "/>
	<polygon fill="#FFFFFF" points="678.9,162.8 683.4,158.3 696.9,158.3 692.4,162.8 "/>
	<path fill="none" stroke="#000000" stroke-miterlimit="8" d="M692.4,162.8v13.5 M678.9,162.8h13.5l4.5-4.5 M678.9,162.8l4.5-4.5
	h13.5v13.5l-4.5,4.5h-13.5V162.8z"/>
	<line fill="none" stroke="#000000" stroke-linejoin="round" stroke-miterlimit="10" x1="684.9" y1="152.3" x2="684.9" y2="162.5"/>
	<rect x="678.9" y="186.8" fill="#FFFFFF" width="13.5" height="13.5"/>
	<polygon fill="none" points="692.4,186.8 696.9,182.3 696.9,195.8 692.4,200.3 "/>
	<polygon fill="#FFFFFF" points="678.9,186.8 683.4,182.3 696.9,182.3 692.4,186.8 "/>
	<path fill="none" stroke="#000000" stroke-miterlimit="8" d="M692.4,186.8v13.5 M678.9,186.8h13.5l4.5-4.5 M678.9,186.8l4.5-4.5
	h13.5v13.5l-4.5,4.5h-13.5V186.8z"/>
	<rect x="678.9" y="210.8" fill="#FFFFFF" width="13.5" height="13.5"/>
	<polygon fill="none" points="692.4,210.8 696.9,206.3 696.9,219.8 692.4,224.3 "/>
	<polygon fill="#FFFFFF" points="678.9,210.8 683.4,206.3 696.9,206.3 692.4,210.8 "/>
	<path fill="none" stroke="#000000" stroke-miterlimit="8" d="M692.4,210.8v13.5 M678.9,210.8h13.5l4.5-4.5 M678.9,210.8l4.5-4.5
	h13.5v13.5l-4.5,4.5h-13.5V210.8z"/>
	<line fill="none" stroke="#000000" stroke-linejoin="round" stroke-miterlimit="10" x1="684.9" y1="200.3" x2="684.9" y2="210.5"/>
	<rect x="678.9" y="234.8" fill="#FFFFFF" width="13.5" height="13.5"/>
	<polygon fill="none" points="692.4,234.8 696.9,230.3 696.9,243.8 692.4,248.3 "/>
	<polygon fill="#FFFFFF" points="678.9,234.8 683.4,230.3 696.9,230.3 692.4,234.8 "/>
	<path fill="none" stroke="#000000" stroke-miterlimit="8" d="M692.4,234.8v13.5 M678.9,234.8h13.5l4.5-4.5 M678.9,234.8l4.5-4.5
	h13.5v13.5l-4.5,4.5h-13.5V234.8z"/>
	<rect x="678.9" y="258.8" fill="#FFFFFF" width="13.5" height="13.5"/>
	<polygon fill="none" points="692.4,258.8 696.9,254.3 696.9,267.8 692.4,272.3 "/>
	<polygon fill="#FFFFFF" points="678.9,258.8 683.4,254.3 696.9,254.3 692.4,258.8 "/>
	<path fill="none" stroke="#000000" stroke-miterlimit="8" d="M692.4,258.8v13.5 M678.9,258.8h13.5l4.5-4.5 M678.9,258.8l4.5-4.5
	h13.5v13.5l-4.5,4.5h-13.5V258.8z"/>
	<line fill="none" stroke="#000000" stroke-linejoin="round" stroke-miterlimit="10" x1="684.9" y1="224.3" x2="684.9" y2="234.5"/>
	<line fill="none" stroke="#000000" stroke-linejoin="round" stroke-miterlimit="10" x1="684.9" y1="248.3" x2="684.9" y2="258.5"/>
	<rect x="678.9" y="282.8" fill="#FFFFFF" width="13.5" height="13.5"/>
	<polygon fill="none" points="692.4,282.8 696.9,278.3 696.9,291.8 692.4,296.3 "/>
	<polygon fill="#FFFFFF" points="678.9,282.8 683.4,278.3 696.9,278.3 692.4,282.8 "/>
	<path fill="none" stroke="#000000" stroke-miterlimit="8" d="M692.4,282.8v13.5 M678.9,282.8h13.5l4.5-4.5 M678.9,282.8l4.5-4.5
	h13.5v13.5l-4.5,4.5h-13.5V282.8z"/>
	<line fill="none" stroke="#000000" stroke-linejoin="round" stroke-miterlimit="10" x1="684.9" y1="272.3" x2="684.9" y2="282.5"/>
	<rect x="678.9" y="306.8" fill="#FFFFFF" width="13.5" height="13.5"/>
	<polygon fill="none" points="692.4,306.8 696.9,302.3 696.9,315.8 692.4,320.3 "/>
	<polygon fill="#FFFFFF" points="678.9,306.8 683.4,302.3 696.9,302.3 692.4,306.8 "/>
	<path fill="none" stroke="#000000" stroke-miterlimit="8" d="M692.4,306.8v13.5 M678.9,306.8h13.5l4.5-4.5 M678.9,306.8l4.5-4.5
	h13.5v13.5l-4.5,4.5h-13.5V306.8z"/>
	<rect x="678.9" y="330.8" fill="#FFFFFF" width="13.5" height="13.5"/>
	<polygon fill="none" points="692.4,330.8 696.9,326.3 696.9,339.8 692.4,344.3 "/>
	<polygon fill="#FFFFFF" points="678.9,330.8 683.4,326.3 696.9,326.3 692.4,330.8 "/>
	<path fill="none" stroke="#000000" stroke-miterlimit="8" d="M692.4,330.8v13.5 M678.9,330.8h13.5l4.5-4.5 M678.9,330.8l4.5-4.5
	h13.5v13.5l-4.5,4.5h-13.5V330.8z"/>
	<line fill="none" stroke="#000000" stroke-linejoin="round" stroke-miterlimit="10" x1="684.9" y1="320.3" x2="684.9" y2="330.5"/>
	<rect x="678.9" y="354.8" fill="#FFFFFF" width="13.5" height="13.5"/>
	<polygon fill="none" points="692.4,354.8 696.9,350.3 696.9,363.8 692.4,368.3 "/>
	<polygon fill="#FFFFFF" points="678.9,354.8 683.4,350.3 696.9,350.3 692.4,354.8 "/>
	<path fill="none" stroke="#000000" stroke-miterlimit="8" d="M692.4,354.8v13.5 M678.9,354.8h13.5l4.5-4.5 M678.9,354.8l4.5-4.5
	h13.5v13.5l-4.5,4.5h-13.5V354.8z"/>
	<rect x="678.9" y="378.8" fill="#FFFFFF" width="13.5" height="13.5"/>
	<polygon fill="none" points="692.4,378.8 696.9,374.3 696.9,387.8 692.4,392.3 "/>
	<polygon fill="#FFFFFF" points="678.9,378.8 683.4,374.3 696.9,374.3 692.4,378.8 "/>
	<path fill="none" stroke="#000000" stroke-miterlimit="8" d="M692.4,378.8v13.5 M678.9,378.8h13.5l4.5-4.5 M678.9,378.8l4.5-4.5
	h13.5v13.5l-4.5,4.5h-13.5V378.8z"/>
	<line fill="none" stroke="#000000" stroke-linejoin="round" stroke-miterlimit="10" x1="684.9" y1="344.3" x2="684.9" y2="354.5"/>
	<line fill="none" stroke="#000000" stroke-linejoin="round" stroke-miterlimit="10" x1="684.9" y1="368.3" x2="684.9" y2="378.5"/>
	<rect x="678.9" y="402.8" fill="#FFFFFF" width="13.5" height="13.5"/>
	<polygon fill="none" points="692.4,402.8 696.9,398.3 696.9,411.8 692.4,416.3 "/>
	<polygon fill="#FFFFFF" points="678.9,402.8 683.4,398.3 696.9,398.3 692.4,402.8 "/>
	<path fill="none" stroke="#000000" stroke-miterlimit="8" d="M692.4,402.8v13.5 M678.9,402.8h13.5l4.5-4.5 M678.9,402.8l4.5-4.5
	h13.5v13.5l-4.5,4.5h-13.5V402.8z"/>
	<line fill="none" stroke="#000000" stroke-linejoin="round" stroke-miterlimit="10" x1="684.9" y1="416.3" x2="684.9" y2="426.6"/>
	<line fill="none" stroke="#000000" stroke-linejoin="round" stroke-miterlimit="10" x1="684.9" y1="392.3" x2="684.9" y2="402.5"/>
	<line fill="none" stroke="#000000" stroke-linejoin="round" stroke-miterlimit="10" x1="684.9" y1="296.3" x2="684.9" y2="306.5"/>
	<line fill="none" stroke="#000000" stroke-linejoin="round" stroke-miterlimit="10" x1="684.9" y1="176.3" x2="684.9" y2="186.5"/>
	<path fill="#000000" d="M467.9,220.3l3-6l3,6H467.9z M470.4,233.2l0-13.9h1l0,13.9H470.4z"/>
	<path d="M567.9,220.3l-3-6l-3,6L567.9,220.3z M565.4,233.4l0-14.1l-1,0l0,14.1L565.4,233.4z"/>
	<path d="M567.9,116.3l3-6l3,6H567.9z M570.4,122.5v-7.3h1v7.3H570.4z"/>
	<path d="M499.9,116.5l-3,6l-3-6L499.9,116.5z M496.4,117.5l0-7.3h1l0,7.3H496.4z"/>
	<path d="M562.9,409.3l3-6l3,6H562.9z M565.4,446.4l0-38.2h1l0,38.2H565.4z"/>
	<path d="M493.9,440.7l-3,6l-3-6L493.9,440.7z M490.4,441.7l0-38.5h1l0,38.5H490.4z"/>
	<path fill="none" stroke="#000000" stroke-linejoin="round" stroke-miterlimit="10" d="M488.9,321.1c0,3.2-19,5.8-42.5,5.8
	c-23.5,0-42.5-2.6-42.5-5.8"/>
	<path fill="none" stroke="#000000" stroke-linejoin="round" stroke-miterlimit="10" d="M403.9,321.1c0-3.2,19-5.8,42.5-5.8
	c23.5,0,42.5,2.6,42.5,5.8v23.3c0,3.2-19,5.8-42.5,5.8c-23.5,0-42.5-2.6-42.5-5.8V321.1z"/>
	<path d="M397.5,329.4l6,3l-6,3L397.5,329.4z M368.9,335.3l-6-3l6-3L368.9,335.3z M367.9,331.8l30.6,0.1l0,1l-30.6-0.1L367.9,331.8z"/>
	<rect x="17.9" y="96.3" fill="none" width="74" height="32.9"/>
	<text transform="matrix(1 0 0 1 17.8854 104.9188)">
		<tspan x="0" y="0" font-size="10px">Web Browser,
		</tspan>
		<tspan x="0" y="12" font-size="10px">Applications,
		</tspan>
		<tspan x="0" y="24" font-size="10px">etc.</tspan>
	</text>
	<rect x="152.2" y="100.8" fill="none" width="65.1" height="29"/>
	<text transform="matrix(1 0 0 1 163.0882 109.3802)">
		<tspan x="0" y="0" font-size="10px">Customer
		</tspan>
		<tspan x="2.2" y="12" font-size="10px">Interface</tspan>
	</text>
	<rect x="150.7" y="171" fill="none" width="70.2" height="33.2"/>
	<text transform="matrix(1 0 0 1 164.0884 179.6234)">
		<tspan x="0" y="0" font-size="10px">Customer
		</tspan>
		<tspan x="-10" y="12" font-size="10px">Authentication
		</tspan>
		<tspan x="2.5" y="24" font-size="10px">Function</tspan>
	</text>
	<rect x="151.4" y="246.2" fill="none" width="69.9" height="24.7"/>
	<text transform="matrix(1 0 0 1 164.6994 254.7325)">
		<tspan x="0" y="0" font-size="10px">Customer</tspan>
		<tspan x="-3.6" y="12" font-size="10px">Credentials</tspan>
	</text>
	<rect x="247.2" y="84.2" fill="none" width="111.6" height="22.6"/>
	<text transform="matrix(1 0 0 1 267.4349 92.8166)">
		<tspan x="0" y="0" font-size="10px">Customer Asset
		</tspan>
		<tspan x="1.1" y="12" font-size="10px">Mgmt. Function</tspan>
	</text>
	<rect x="248.1" y="118.5" fill="none" width="92.5" height="22.6"/>
	<text transform="matrix(1 0 0 1 255.4678 127.0328)">
		<tspan x="0" y="0" font-size="10px">Order Processing
		</tspan>
		<tspan x="19.7" y="12" font-size="10px">Function</tspan>
	</text>
	<rect x="265.3" y="185.7" fill="none" width="82.2" height="15.8"/>
	<text transform="matrix(1 0 0 1 281.9161 194.3132)" font-size="10px">Asset Data</text>
	<rect x="251.6" y="262" fill="none" width="107.5" height="27.4"/>
	<text transform="matrix(1 0 0 1 259.7857 270.6063)">
		<tspan x="0" y="0" font-size="10px">Exchange Operation
		</tspan>
		<tspan x="26.7" y="12" font-size="10px">Modules</tspan>
	</text>
	<rect x="250.6" y="320.4" fill="none" width="111.6" height="24.7"/>
	<text transform="matrix(1 0 0 1 253.6165 329.0292)">
		<tspan x="0" y="0" font-size="10px">Operator Authentication
		</tspan>
		<tspan x="33.6" y="12" font-size="10px">Function</tspan>
	</text>
	<rect x="149.3" y="327.5" fill="none" width="73.3" height="24.7"/>
	<text transform="matrix(1 0 0 1 151.7435 336.1082)">
		<tspan x="0" y="0" font-size="10px">Operation Logs
		</tspan>
		<tspan x="16.1" y="12" font-size="10px">for audit</tspan>
	</text>
	<rect x="403.7" y="326.3" fill="none" width="86.3" height="24.9"/>
	<text transform="matrix(1 0 0 1 427.1401 334.9252)">
		<tspan x="0" y="0" font-size="10px">Operator</tspan>
		<tspan x="-5.6" y="12" font-size="10px">Credentials</tspan>
	</text>
	<rect x="363.6" y="69.2" fill="none" width="55.5" height="21.9"/>
	<text transform="matrix(1 0 0 1 363.5633 76.8877)">
		<tspan x="0" y="0" font-size="9px">Instruct to
		</tspan>
		<tspan x="0" y="10" font-size="9px">outgo Coin</tspan>
	</text>
	<rect x="427.9" y="37.6" fill="none" width="86" height="23.3"/>
	<text transform="matrix(1 0 0 1 438.9111 46.2131)">
		<tspan x="0" y="0" font-size="10px">Incoming Coin
		</tspan>
		<tspan x="-2.5" y="10" font-size="10px">Mgmt. Function</tspan>
	</text>
	<rect x="544.1" y="37.4" fill="none" width="64.8" height="24.7"/>
	<text transform="matrix(1 0 0 1 552.3095 46.0238)">
		<tspan x="0" y="0" font-size="10px">Blockchain
		</tspan>
		<tspan x="12.2" y="12" font-size="10px">Node</tspan>
	</text>
	<rect x="461.8" y="83.3" fill="none" width="71.1" height="25.3"/>
	<text transform="matrix(1 0 0 1 471.2132 91.8617)">
		<tspan x="0" y="0" font-size="10px">Transaction
		</tspan>
		<tspan x="3.6" y="12" font-size="10px">Generator</tspan>
	</text>
	<rect x="536.8" y="84.6" fill="none" width="70.1" height="21.6"/>
	<text transform="matrix(1 0 0 1 545.6924 93.2287)">
		<tspan x="0" y="0" font-size="10px">Transaction
		</tspan>
		<tspan x="-0.8" y="12" font-size="10px">Broadcaster</tspan>
	</text>
	<rect x="431" y="189.6" fill="none" width="78.7" height="21.3"/>
	<text transform="matrix(1 0 0 1 446.7489 198.1898)">
		<tspan x="0" y="0" font-size="10px">Addresses
		</tspan>
		<tspan x="-5.8" y="12" font-size="10px">(Public Keys)</tspan>
	</text>
	<rect x="529.8" y="267" fill="none" width="89.3" height="22"/>
	<text transform="matrix(1 0 0 1 529.8372 275.582)">
		<tspan x="0" y="0" font-size="10px">Transaction Signing
		</tspan>
		<tspan x="0" y="12" font-size="10px">Modules</tspan>
	</text>
	<rect x="365.5" y="284.7" fill="none" width="131.4" height="20.7"/>
	<text transform="matrix(1 0 0 1 365.5038 291.5322)">
		<tspan x="0" y="0" font-size="8px">Instruct to provision Address and/or
		</tspan>
		<tspan x="0" y="10" font-size="8px">generate Key</tspan>
	</text>
	<rect x="365.5" y="254.1" fill="none" width="42.4" height="22.9"/>
	<text transform="matrix(1 0 0 1 365.5038 260.9194)">
		<tspan x="0" y="0" font-size="8px">Instruct to
		</tspan>
		<tspan x="0" y="10" font-size="8px">transfer</tspan>
	</text>
	<rect x="456.4" y="379.2" fill="none" width="68" height="21.4"/>
	<text transform="matrix(1 0 0 1 464.2485 387.8065)">
		<tspan x="0" y="0" font-size="10px">Transaction
		</tspan>
		<tspan x="3.6" y="10" font-size="10px">Generator</tspan>
	</text>
	<rect x="530.4" y="378" fill="none" width="69.3" height="22.8"/>
	<text transform="matrix(1 0 0 1 538.9678 386.6138)">
		<tspan x="0" y="0" font-size="10px">Transaction
		</tspan>
		<tspan x="-0.8" y="10" font-size="10px">Broadcaster</tspan>
	</text>
</svg>
