<?xml version="1.0" encoding="us-ascii"?>
<svg version="1.1" xmlns="http://www.w3.org/2000/svg" xmlns:xlink="http://www.w3.org/1999/xlink" width="738px" height="380px" viewBox="0 0 738 380" xml:space="preserve">
	<path fill="none" stroke="#000000" stroke-width="2" stroke-linejoin="round" stroke-miterlimit="10" d="M135,43.6
	c0-11.4,9.2-20.6,20.6-20.6h446.7c11.4,0,20.6,9.2,20.6,20.6v295.7c0,11.4-9.2,20.6-20.6,20.6H155.6c-11.4,0-20.6-9.2-20.6-20.6
	V43.6z"/>
	<path
		fill="none"
		stroke="#000000"
		stroke-width="2"
		stroke-linejoin="round"
		stroke-miterlimit="10"
		stroke-dasharray="8,6"
		d="
	M420,84.8c0-6.5,5.3-11.8,11.8-11.8h173.4c6.5,0,11.8,5.3,11.8,11.8v169.4c0,6.5-5.3,11.8-11.8,11.8H431.8
	c-6.5,0-11.8-5.3-11.8-11.8V84.8z"/>
	<text transform="matrix(1 0 0 1 18.1988 87)" font-size="10px">Customers</text>
	<rect x="17.5" y="93.5" fill="none" stroke="#000000" stroke-linejoin="round" stroke-miterlimit="10" width="78" height="38"/>
	<text transform="matrix(1 0 0 1 22.7593 105.0254)">
		<tspan x="0" y="0" font-size="10px">Web Browser,
		</tspan>
		<tspan x="0" y="11" font-size="10px">Applications,
		</tspan>
		<tspan x="0" y="22" font-size="10px">etc.</tspan>
	</text>
	<path fill="none" stroke="#000000" stroke-linejoin="round" stroke-miterlimit="10" d="M124.3,90l-15.6,46 M108.7,90l15.6,46"/>
	<ellipse fill="none" stroke="#000000" stroke-linejoin="round" stroke-miterlimit="10" cx="116.5" cy="113" rx="11" ry="32.5"/>
	<rect x="148.5" y="81.5" fill="none" stroke="#000000" stroke-linejoin="round" stroke-miterlimit="10" width="78" height="63"/>
	<rect x="148.5" y="168.5" fill="none" stroke="#000000" stroke-linejoin="round" stroke-miterlimit="10" width="78" height="40"/>
	<text transform="matrix(1 0 0 1 164.001 180)">
		<tspan x="0" y="0" font-size="10px">Custermer
		</tspan>
		<tspan x="-8.4" y="12" font-size="10px">Authentication
		</tspan>
		<tspan x="4.2" y="24" font-size="10px">Function</tspan>
	</text>
	<path fill="none" stroke="#000000" stroke-linejoin="round" stroke-miterlimit="10" d="M226.5,238.8c0,3.5-17.5,6.3-39,6.3
	s-39-2.8-39-6.3"/>
	<path fill="none" stroke="#000000" stroke-linejoin="round" stroke-miterlimit="10" d="M148.5,238.8c0-3.5,17.5-6.3,39-6.3
	s39,2.8,39,6.3v25.3c0,3.5-17.5,6.3-39,6.3s-39-2.8-39-6.3V238.8z"/>
	<text transform="matrix(1 0 0 1 167.436 256)">
		<tspan x="0" y="0" font-size="9px">Customer
		</tspan>
		<tspan x="-3.3" y="10.8" font-size="9px">Credentials</tspan>
	</text>
	<rect x="248.5" y="81.5" fill="none" stroke="#000000" stroke-linejoin="round" stroke-miterlimit="10" width="113" height="28"/>
	<text transform="matrix(1 0 0 1 266.1486 93)">
		<tspan x="0" y="0" font-size="10px">Customer Assets
		</tspan>
		<tspan x="3.6" y="12" font-size="10px">Mgmt. Function</tspan>
	</text>
	<rect x="248.5" y="116.5" fill="none" stroke="#000000" stroke-linejoin="round" stroke-miterlimit="10" width="95" height="28"/>
	<text transform="matrix(1 0 0 1 258.8028 128)">
		<tspan x="0" y="0" font-size="10px">Order Processing
		</tspan>
		<tspan x="19.7" y="12" font-size="10px">Function</tspan>
	</text>
	<path fill="none" stroke="#000000" stroke-linejoin="round" stroke-miterlimit="10" d="M364.5,174.8c0,3.5-25.3,6.3-56.5,6.3
	s-56.5-2.8-56.5-6.3"/>
	<path fill="none" stroke="#000000" stroke-linejoin="round" stroke-miterlimit="10" d="M251.5,174.8c0-3.5,25.3-6.3,56.5-6.3
	s56.5,2.8,56.5,6.3v25.3c0,3.5-25.3,6.3-56.5,6.3s-56.5-2.8-56.5-6.3V174.8z"/>
	<text transform="matrix(1 0 0 1 281.154 196)" font-size="10px">Assets Data</text>
	<rect x="251.5" y="254.5" fill="none" stroke="#000000" stroke-linejoin="round" stroke-miterlimit="10" width="113" height="40"/>
	<text transform="matrix(1 0 0 1 258.8424 271)">
		<tspan x="0" y="0" font-size="10px">Custodians Operation
		</tspan>
		<tspan x="29.6" y="12" font-size="10px">Modules</tspan>
	</text>
	<rect x="251.5" y="315.5" fill="none" stroke="#000000" stroke-linejoin="round" stroke-miterlimit="10" width="113" height="35"/>
	<text transform="matrix(1 0 0 1 286.7937 325)">
		<tspan x="0" y="0" font-size="10px">Operator
		</tspan>
		<tspan x="-11.9" y="12" font-size="10px">Authentication
		</tspan>
		<tspan x="1.9" y="24" font-size="10px">Function</tspan>
	</text>
	<path fill="none" stroke="#000000" stroke-linejoin="round" stroke-miterlimit="10" d="M226.5,320.7c0,3.4-17.5,6.2-39,6.2
	s-39-2.8-39-6.2"/>
	<path fill="none" stroke="#000000" stroke-linejoin="round" stroke-miterlimit="10" d="M148.5,320.7c0-3.4,17.5-6.2,39-6.2
	s39,2.8,39,6.2v24.7c0,3.4-17.5,6.2-39,6.2s-39-2.8-39-6.2V320.7z"/>
	<text transform="matrix(1 0 0 1 155.6704 337)">
		<tspan x="0" y="0" font-size="9px">Operation Logs
		</tspan>
		<tspan x="15.8" y="10.8" font-size="9px">for audit</tspan>
	</text>
	<rect x="463.5" y="122.5" fill="none" stroke="#000000" stroke-linejoin="round" stroke-miterlimit="10" width="145" height="28"/>
	<text transform="matrix(1 0 0 1 470.9911 140)" font-size="10px">Transaction Signing Function</text>
	<rect x="463.5" y="82.5" fill="none" stroke="#000000" stroke-linejoin="round" stroke-miterlimit="10" width="71" height="27"/>
	<text transform="matrix(1 0 0 1 472.4173 93)">
		<tspan x="0" y="0" font-size="10px">Transaction
		</tspan>
		<tspan x="0" y="12" font-size="10px">Generator</tspan>
	</text>
	<rect x="537.5" y="82.5" fill="none" stroke="#000000" stroke-linejoin="round" stroke-miterlimit="10" width="71" height="27"/>
	<text transform="matrix(1 0 0 1 546.3349 93)">
		<tspan x="0" y="0" font-size="10px">Transaction
		</tspan>
		<tspan x="0" y="12" font-size="10px">Broadcaster</tspan>
	</text>
	<rect x="429.5" y="35.5" fill="none" stroke="#000000" stroke-linejoin="round" stroke-miterlimit="10" width="86" height="28"/>
	<text transform="matrix(1 0 0 1 439.8292 47)">
		<tspan x="0" y="0" font-size="10px">Incoming Coin
		</tspan>
		<tspan x="0" y="12" font-size="10px">Mgmt. Function</tspan>
	</text>
	<rect x="545.5" y="35.5" fill="none" stroke="#000000" stroke-linejoin="round" stroke-miterlimit="10" width="65" height="28"/>
	<text transform="matrix(1 0 0 1 552.8051 47)">
		<tspan x="0" y="0" font-size="10px">Blockchain
		</tspan>
		<tspan x="13.5" y="12" font-size="10px">Node</tspan>
	</text>
	<path d="M142.6,109.5l6-3l-6-3L142.6,109.5z M95.5,107.1l48.1-0.1l0-1l-48.1,0.1L95.5,107.1z"/>
	<path d="M101.5,120.5l-6-3l6-3L101.5,120.5z M148.7,118l-48.2,0v-1l48.2,0V118z"/>
	<path d="M190.5,162.7l-3,6l-3-6H190.5z M184.5,150.5l3-6l3,6H184.5z M188,149.5l0,14.2h-1l0-14.2H188z"/>
	<path d="M190.5,226.4l-3,6l-3-6H190.5z M184.5,214.5l3-6l3,6H184.5z M188,213.5l0,13.9h-1l0-13.9H188z"/>
	<path fill="#ffffff" d="M347.5,115.5l3-6l3,6H347.5z M353.5,164.5l-3,6l-3-6L353.5,164.5z M350,165.5l0-51h1l0,51H350z"/>
	<path fill="#ffffff" d="M304.5,150.5l3-6l3,6H304.5z M310.5,162.5l-3,6l-3-6L310.5,162.5z M307,163.5l0-14h1l0,14H307z"/>
	<path d="M304.5,212.5l3-6l3,6H304.5z M310.5,248.4l-3,6l-3-6H310.5z M307,249.4l0-37.9h1l0,37.9H307z"/>
	<path d="M304.5,300.5l3-6l3,6L304.5,300.5z M310.5,309.7l-3,6l-3-6H310.5z M307,310.7l0-11.2l1,0l0,11.2H307z"/>
	<path d="M232.5,335.5l-6-3l6-3V335.5z M245.1,329.5l6,3l-6,3V329.5z M246.1,333l-14.6,0v-1l14.6,0V333z"/>
	<path fill="none" stroke="#000000" stroke-linejoin="round" stroke-miterlimit="10" d="M515.5,182.8c0,3.5-19.3,6.3-43,6.3
	c-23.7,0-43-2.8-43-6.3"/>
	<path fill="none" stroke="#000000" stroke-linejoin="round" stroke-miterlimit="10" d="M429.5,182.8c0-3.5,19.3-6.3,43-6.3
	c23.7,0,43,2.8,43,6.3v25.3c0,3.5-19.3,6.3-43,6.3c-23.7,0-43-2.8-43-6.3V182.8z"/>
	<text transform="matrix(1 0 0 1 450.4352 199)">
		<tspan x="0" y="0" font-size="9px">Addresses
		</tspan>
		<tspan x="-5.2" y="10.8" font-size="9px">(Public Keys)</tspan>
	</text>
	<path fill="none" stroke="#000000" stroke-linejoin="round" stroke-miterlimit="10" d="M609.5,182.8c0,3.5-19.3,6.3-43,6.3
	c-23.7,0-43-2.8-43-6.3"/>
	<path fill="none" stroke="#000000" stroke-linejoin="round" stroke-miterlimit="10" d="M523.5,182.8c0-3.5,19.3-6.3,43-6.3
	c23.7,0,43,2.8,43,6.3v25.3c0,3.5-19.3,6.3-43,6.3c-23.7,0-43-2.8-43-6.3V182.8z"/>
	<text transform="matrix(1 0 0 1 535.5217 202)" font-size="9px">Signature Keys</text>
	<rect x="431.5" y="232.5" fill="none" stroke="#000000" stroke-linejoin="round" stroke-miterlimit="10" width="180" height="22"/>
	<text transform="matrix(1 0 0 1 488.658 247)" font-size="10px">Key Generator</text>
	<path d="M569.7,156.5l-2.9-6l-3.1,6L569.7,156.5z M563.6,170.6l2.9,6l3.1-6L563.6,170.6z M567.1,171.7l0.2-16.2l-1,0l-0.2,16.2
	L567.1,171.7z"/>
	<path d="M521.5,52.5l-6-3l6-3V52.5z M545.7,50l-25.2,0v-1l25.2,0V50z"/>
	<path d="M456.8,86.5l6,3l-6,3V86.5z M361.5,89l96.3,0v1l-96.3,0V89z"/>
	<path d="M451.5,171.1l-3,6l-3-6H451.5z M449,62.5l0,109.6h-1l0-109.6H449z"/>
	<path d="M358.5,165.2l-3,6l-3-6H358.5z M439.8,63.5v53.9c0,0.3-0.2,0.5-0.5,0.5h-83.8l0.5-0.5v48.9h-1v-48.9c0-0.3,0.2-0.5,0.5-0.5
	h83.8l-0.5,0.5V63.5H439.8z"/>
	<path d="M524.2,260.5l-3-6l-3,6H524.2z M364.5,284.4h156.7c0.3,0,0.5-0.2,0.5-0.5v-24.4h-1v24.4l0.5-0.5H364.5V284.4z"/>
	<path d="M457.4,98.5l6-3l-6-3V98.5z M364.5,274.5H414c0.3,0,0.5-0.2,0.5-0.5V95.5L414,96h44.5v-1H414c-0.3,0-0.5,0.2-0.5,0.5V274
	l0.5-0.5h-49.5V274.5z"/>
	<text transform="matrix(1 0 0 1 525.2543 278)">
		<tspan x="0" y="0" font-size="10px">Transaction Signing
		</tspan>
		<tspan x="53.5" y="12" font-size="10px">Modules</tspan>
	</text>
	<text transform="matrix(1 0 0 1 145.9272 18)" font-size="10px">Cryptoassets Custodians System</text>
	<path d="M664,46.6l6,3l-6,3L664,46.6z M610.5,49l54.5,0.1l0,1L610.5,50L610.5,49z"/>
	<path d="M656.1,92.7l6,3l-6,3L656.1,92.7z M608.5,95l48.6,0.2l0,1L608.5,96L608.5,95z"/>
	<text transform="matrix(1 0 0 1 370.5039 75)">
		<tspan x="0" y="0" font-size="8px">Instruct to
		</tspan>
		<tspan x="0" y="9.6" font-size="8px">outgo Coin</tspan>
	</text>
	<text transform="matrix(1 0 0 1 662.3056 24)" font-size="10px">Blockchain</text>
	<path d="M232.5,133.5l-6-3l6-3V133.5z M242.3,127.5l6,3l-6,3V127.5z M243.3,131l-11.8,0v-1l11.8,0V131z"/>
	<text transform="matrix(1 0 0 1 251.2067 250)" font-size="10px">Operators</text>
	<text transform="matrix(1 0 0 1 369.9243 292)">
		<tspan x="0" y="0" font-size="8px">Instruct to provision Address and/or
		</tspan>
		<tspan x="0" y="9.6" font-size="8px">generate Key</tspan>
	</text>
	<text transform="matrix(1 0 0 1 369.9783 260)">
		<tspan x="0" y="0" font-size="8px">Instruct to
		</tspan>
		<tspan x="0" y="9.6" font-size="8px">transfer</tspan>
	</text>
	<path d="M232.5,92.6l-6,3l6,3L232.5,92.6z M242.3,98.5l6-3l-6-3L242.3,98.5z M243.3,95l-11.8,0.1l0,1l11.8-0.1L243.3,95z"/>
	<path
		fill="none"
		stroke="#000000"
		stroke-linejoin="round"
		stroke-miterlimit="10"
		d="M698.2,61.8c7.5-3.8,14.3,15.6,15.3,43.4
	c0.4,11.2-0.2,22.7-1.7,32.4c5.3,10.4,7.2,34.6,4.5,54.1c-0.5,3.4-1.1,6.5-1.8,9.3c4.4,8.1,6.1,27.7,3.9,43.9
	c-0.6,4.5-1.5,8.4-2.5,11.4c4.1,13,4.6,36,1.1,51.3c-1.5,6.5-3.5,10.8-5.7,12.3c-1.6,21.3-7.5,33.9-13.2,28.1
	c-0.5-0.5-1-1.1-1.4-1.8c-6,17.1-14.6,12.9-19.2-9.3c-1.4-6.9-2.4-15.1-2.7-23.8c-6.4-0.2-11.6-19.8-11.6-43.7
	c0-8,0.6-15.8,1.8-22.6c-7.2-8.1-11.3-36.4-9.1-63.1c0.9-11.2,2.9-20.9,5.5-27.4c-4.4-27.4-2.1-63,5.3-79.5c0.1-0.2,0.2-0.4,0.3-0.6
	c-0.6-17.9,2.9-34.2,7.7-36.3c2.6-1.1,5.1,2,7,8.6c2.5-15.5,7.9-20.7,12.1-11.7c2.4,5.2,4,14.4,4.3,24.8L698.2,61.8z"/>
	<path
		fill="none"
		stroke="#000000"
		stroke-linejoin="round"
		stroke-miterlimit="10"
		d="M696.1,63.5c0.7-0.8,1.4-1.3,2.1-1.7
	 M711.8,137.5c-0.6,3.5-1.2,6.8-2,9.7 M712.5,198.6c0.7,0.6,1.4,1.5,2.1,2.7 M713.6,250.6c0.9,1.4,1.7,3.3,2.4,5.6 M711.5,319.9
	c-0.6,0.4-1.2,0.6-1.9,0.6 M696.8,346c-1.5-2.4-2.9-6.2-4-10.9 M685.5,288.5c-2,15-6.1,24.5-10.6,24.4 M668,248.7
	c-1-0.3-1.9-1-2.8-2 M661.6,156.1c0.8-2,1.7-3.7,2.6-5 M667.8,84.5c-0.3-2.7-0.5-5.5-0.6-8.3 M680.7,67.7c-0.1-6.6,0.3-13.3,1.2-19"/>
	<rect x="680.5" y="67" fill="#FFFFFF" width="13.5" height="13.5"/>
	<polygon fill="none" points="694,67 698.5,62.5 698.5,76 694,80.5 "/>
	<polygon fill="#FFFFFF" points="680.5,67 685,62.5 698.5,62.5 694,67 "/>
	<path fill="none" stroke="#000000" stroke-miterlimit="8" d="M694,67v13.5 M680.5,67H694l4.5-4.5 M680.5,67l4.5-4.5h13.5V76
	l-4.5,4.5h-13.5V67z"/>
	<rect x="680.5" y="91" fill="#FFFFFF" width="13.5" height="13.5"/>
	<polygon fill="none" points="694,91 698.5,86.5 698.5,100 694,104.5 "/>
	<polygon fill="#FFFFFF" points="680.5,91 685,86.5 698.5,86.5 694,91 "/>
	<path fill="none" stroke="#000000" stroke-miterlimit="8" d="M694,91v13.5 M680.5,91H694l4.5-4.5 M680.5,91l4.5-4.5h13.5V100
	l-4.5,4.5h-13.5V91z"/>
	<line fill="none" stroke="#000000" stroke-linejoin="round" stroke-miterlimit="10" x1="686.5" y1="80.5" x2="686.5" y2="90.7"/>
	<rect x="680.5" y="115" fill="#FFFFFF" width="13.5" height="13.5"/>
	<polygon fill="none" points="694,115 698.5,110.5 698.5,124 694,128.5 "/>
	<polygon fill="#FFFFFF" points="680.5,115 685,110.5 698.5,110.5 694,115 "/>
	<path fill="none" stroke="#000000" stroke-miterlimit="8" d="M694,115v13.5 M680.5,115H694l4.5-4.5 M680.5,115l4.5-4.5h13.5V124
	l-4.5,4.5h-13.5V115z"/>
	<rect x="680.5" y="139" fill="#FFFFFF" width="13.5" height="13.5"/>
	<polygon fill="none" points="694,139 698.5,134.5 698.5,148 694,152.5 "/>
	<polygon fill="#FFFFFF" points="680.5,139 685,134.5 698.5,134.5 694,139 "/>
	<path fill="none" stroke="#000000" stroke-miterlimit="8" d="M694,139v13.5 M680.5,139H694l4.5-4.5 M680.5,139l4.5-4.5h13.5V148
	l-4.5,4.5h-13.5V139z"/>
	<line fill="none" stroke="#000000" stroke-linejoin="round" stroke-miterlimit="10" x1="686.5" y1="104.5" x2="686.5" y2="114.7"/>
	<line fill="none" stroke="#000000" stroke-linejoin="round" stroke-miterlimit="10" x1="686.5" y1="128.5" x2="686.5" y2="138.7"/>
	<rect x="680.5" y="163" fill="#FFFFFF" width="13.5" height="13.5"/>
	<polygon fill="none" points="694,163 698.5,158.5 698.5,172 694,176.5 "/>
	<polygon fill="#FFFFFF" points="680.5,163 685,158.5 698.5,158.5 694,163 "/>
	<path fill="none" stroke="#000000" stroke-miterlimit="8" d="M694,163v13.5 M680.5,163H694l4.5-4.5 M680.5,163l4.5-4.5h13.5V172
	l-4.5,4.5h-13.5V163z"/>
	<line fill="none" stroke="#000000" stroke-linejoin="round" stroke-miterlimit="10" x1="686.5" y1="152.5" x2="686.5" y2="162.7"/>
	<rect x="680.5" y="187" fill="#FFFFFF" width="13.5" height="13.5"/>
	<polygon fill="none" points="694,187 698.5,182.5 698.5,196 694,200.5 "/>
	<polygon fill="#FFFFFF" points="680.5,187 685,182.5 698.5,182.5 694,187 "/>
	<path fill="none" stroke="#000000" stroke-miterlimit="8" d="M694,187v13.5 M680.5,187H694l4.5-4.5 M680.5,187l4.5-4.5h13.5V196
	l-4.5,4.5h-13.5V187z"/>
	<rect x="680.5" y="211" fill="#FFFFFF" width="13.5" height="13.5"/>
	<polygon fill="none" points="694,211 698.5,206.5 698.5,220 694,224.5 "/>
	<polygon fill="#FFFFFF" points="680.5,211 685,206.5 698.5,206.5 694,211 "/>
	<path fill="none" stroke="#000000" stroke-miterlimit="8" d="M694,211v13.5 M680.5,211H694l4.5-4.5 M680.5,211l4.5-4.5h13.5V220
	l-4.5,4.5h-13.5V211z"/>
	<line fill="none" stroke="#000000" stroke-linejoin="round" stroke-miterlimit="10" x1="686.5" y1="200.5" x2="686.5" y2="210.7"/>
	<rect x="680.5" y="235" fill="#FFFFFF" width="13.5" height="13.5"/>
	<polygon fill="none" points="694,235 698.5,230.5 698.5,244 694,248.5 "/>
	<polygon fill="#FFFFFF" points="680.5,235 685,230.5 698.5,230.5 694,235 "/>
	<path fill="none" stroke="#000000" stroke-miterlimit="8" d="M694,235v13.5 M680.5,235H694l4.5-4.5 M680.5,235l4.5-4.5h13.5V244
	l-4.5,4.5h-13.5V235z"/>
	<rect x="680.5" y="259" fill="#FFFFFF" width="13.5" height="13.5"/>
	<polygon fill="none" points="694,259 698.5,254.5 698.5,268 694,272.5 "/>
	<polygon fill="#FFFFFF" points="680.5,259 685,254.5 698.5,254.5 694,259 "/>
	<path fill="none" stroke="#000000" stroke-miterlimit="8" d="M694,259v13.5 M680.5,259H694l4.5-4.5 M680.5,259l4.5-4.5h13.5V268
	l-4.5,4.5h-13.5V259z"/>
	<line fill="none" stroke="#000000" stroke-linejoin="round" stroke-miterlimit="10" x1="686.5" y1="224.5" x2="686.5" y2="234.7"/>
	<line fill="none" stroke="#000000" stroke-linejoin="round" stroke-miterlimit="10" x1="686.5" y1="248.5" x2="686.5" y2="258.7"/>
	<rect x="680.5" y="283" fill="#FFFFFF" width="13.5" height="13.5"/>
	<polygon fill="none" points="694,283 698.5,278.5 698.5,292 694,296.5 "/>
	<polygon fill="#FFFFFF" points="680.5,283 685,278.5 698.5,278.5 694,283 "/>
	<path fill="none" stroke="#000000" stroke-miterlimit="8" d="M694,283v13.5 M680.5,283H694l4.5-4.5 M680.5,283l4.5-4.5h13.5V292
	l-4.5,4.5h-13.5V283z"/>
	<line fill="none" stroke="#000000" stroke-linejoin="round" stroke-miterlimit="10" x1="686.5" y1="272.5" x2="686.5" y2="282.7"/>
	<rect x="680.5" y="307" fill="#FFFFFF" width="13.5" height="13.5"/>
	<polygon fill="none" points="694,307 698.5,302.5 698.5,316 694,320.5 "/>
	<polygon fill="#FFFFFF" points="680.5,307 685,302.5 698.5,302.5 694,307 "/>
	<path fill="none" stroke="#000000" stroke-miterlimit="8" d="M694,307v13.5 M680.5,307H694l4.5-4.5 M680.5,307l4.5-4.5h13.5V316
	l-4.5,4.5h-13.5V307z"/>
	<line fill="none" stroke="#ffffff" stroke-linejoin="round" stroke-miterlimit="10" x1="686.5" y1="320.5" x2="686.5" y2="330.7"/>
	<line fill="none" stroke="#000000" stroke-linejoin="round" stroke-miterlimit="10" x1="686.5" y1="296.5" x2="686.5" y2="306.7"/>
	<line fill="none" stroke="#000000" stroke-linejoin="round" stroke-miterlimit="10" x1="686.5" y1="176.5" x2="686.5" y2="186.7"/>
	<path fill="#ffffff" d="M469.5,220.5l3-6l3,6H469.5z M472,233.4l0-13.9h1l0,13.9H472z"/>
	<path d="M569.5,220.5l-3-6l-3,6L569.5,220.5z M567,233.6l0-14.1l-1,0l0,14.1L567,233.6z"/>
	<path d="M569.5,116.5l3-6l3,6H569.5z M572,122.8v-7.3h1v7.3H572z"/>
	<path d="M501.5,116.8l-3,6l-3-6L501.5,116.8z M498,117.8l0-7.3h1l0,7.3H498z"/>
	<path fill="none" stroke="#000000" stroke-linejoin="round" stroke-miterlimit="10" d="M490.5,321.3c0,3.2-19,5.8-42.5,5.8
	c-23.5,0-42.5-2.6-42.5-5.8"/>
	<path fill="none" stroke="#000000" stroke-linejoin="round" stroke-miterlimit="10" d="M405.5,321.3c0-3.2,19-5.8,42.5-5.8
	c23.5,0,42.5,2.6,42.5,5.8v23.3c0,3.2-19,5.8-42.5,5.8c-23.5,0-42.5-2.6-42.5-5.8V321.3z"/>
	<text transform="matrix(1 0 0 1 429.7402 336)">
		<tspan x="0" y="0" font-size="9px">Operator
		</tspan>
		<tspan x="-3.8" y="10.8" font-size="9px">Credentials</tspan>
	</text>
	<path d="M399.1,329.7l6,3l-6,3L399.1,329.7z M370.5,335.5l-6-3l6-3L370.5,335.5z M369.5,332l30.6,0.1l0,1l-30.6-0.1L369.5,332z"/>
	<text transform="matrix(1 0 0 1 165.3911 110.5947)">
		<tspan x="0" y="0" font-size="10px">Customer
		</tspan>
		<tspan x="2.2" y="11" font-size="10px">Interface</tspan>
	</text>
</svg>
