<?xml version="1.0" encoding="us-ascii"?>
<svg version="1.1" xmlns="http://www.w3.org/2000/svg" xmlns:xlink="http://www.w3.org/1999/xlink" width="841.9px" height="595.3px" viewBox="0 0 841.9 595.3" xml:space="preserve">
	<rect x="118" y="164.9" fill="none" stroke="#000000" stroke-linejoin="round" stroke-miterlimit="10" width="179" height="61"/>
	<rect x="127.3" y="172.2" fill-rule="evenodd" fill="#FFFFFF" width="162.8" height="15"/>
	<rect x="118" y="332.9" fill="none" stroke="#000000" stroke-linejoin="round" stroke-miterlimit="10" width="179" height="62"/>
	<rect x="226.7" y="374" fill-rule="evenodd" fill="#FFFFFF" width="3" height="15"/>
	<rect x="407" y="164.9" fill="none" stroke="#000000" stroke-linejoin="round" stroke-miterlimit="10" width="155" height="61"/>
	<rect x="447.3" y="205.2" fill-rule="evenodd" fill="#FFFFFF" width="3" height="15"/>
	<rect x="407" y="341.9" fill="none" stroke="#000000" stroke-linejoin="round" stroke-miterlimit="10" width="155" height="44"/>
	<rect x="407" y="525.9" fill="none" stroke="#000000" stroke-linejoin="round" stroke-miterlimit="10" width="155" height="45"/>
	<rect x="604" y="428.9" fill="none" stroke="#000000" stroke-linejoin="round" stroke-miterlimit="10" width="155" height="62"/>
	<rect x="657.9" y="453" fill-rule="evenodd" fill="#FFFFFF" width="3" height="15"/>
	<path d="M210,327.2l-3,6l-3-6H210z M207.5,225.9l0,102.3h-1l0-102.3H207.5z"/>
	<path d="M487,255.6l-3,6l-3-6H487z M484.5,225.9l0,30.6h-1l0-30.6H484.5z"/>
	<path d="M487,335.6l-3,6l-3-6H487z M484.5,305.9l0,30.6h-1l0-30.6H484.5z"/>
	<path d="M487,423l-3,6l-3-6H487z M484.5,385.9l0,38.1h-1l0-38.1H484.5z"/>
	<path d="M400.7,544.9l6,3l-6,3V544.9z M118,195.4H99.2l0.5-0.5v353l-0.5-0.5h302.5v1H99.2c-0.3,0-0.5-0.2-0.5-0.5v-353
	c0-0.3,0.2-0.5,0.5-0.5H118V195.4z"/>
	<path d="M400.7,545.2l6,3l-6,3V545.2z M118,364.4H99.2l0.5-0.5v184.3l-0.5-0.5h302.5v1H99.2c-0.3,0-0.5-0.2-0.5-0.5V363.9
	c0-0.3,0.2-0.5,0.5-0.5H118V364.4z"/>
	<path d="M684.6,423l-3,6l-3-6H684.6z M562,194.4h119.6c0.3,0,0.5,0.2,0.5,0.5v229h-1v-229l0.5,0.5H562V194.4z"/>
	<path d="M568,551.5l-6-3l6-3V551.5z M682.1,490.9v57.5c0,0.3-0.2,0.5-0.5,0.5H567v-1h114.6l-0.5,0.5v-57.5H682.1z"/>
	<path d="M568,551.3l-6-3l6-3V551.3z M562,283.4h18.8c0.3,0,0.5,0.2,0.5,0.5v264.4c0,0.3-0.2,0.5-0.5,0.5H567v-1h13.7l-0.5,0.5V283.9
	l0.5,0.5H562V283.4z"/>
	<path d="M568,551.2l-6-3l6-3V551.2z M562,363.4h18.8c0.3,0,0.5,0.2,0.5,0.5v184.3c0,0.3-0.2,0.5-0.5,0.5H567v-1h13.7l-0.5,0.5V363.9
	l0.5,0.5H562V363.4z"/>
	<path fill="none" stroke="#000000" stroke-linejoin="round" stroke-miterlimit="10" stroke-dasharray="4,3" d="M340.5,356.9
	c-3,0-5.5,3.1-5.5,7c0,3.9,2.4,7,5.5,7"/>
	<path d="M568,551.2l-6-3l6-3V551.2z M562,459.4h18.8c0.3,0,0.5,0.2,0.5,0.5v88.3c0,0.3-0.2,0.5-0.5,0.5H567v-1h13.7l-0.5,0.5v-88.3
	l0.5,0.5H562V459.4z"/>
	<path d="M401,280.9l6,3l-6,3V280.9z M387.5,356.3v-72.3c0-0.3,0.2-0.5,0.5-0.5H402v1H388l0.5-0.5v72.3H387.5z"/>
	<path d="M401.1,360.9l6,3l-6,3V360.9z M297,363.4l105.1,0v1l-105.1,0V363.4z"/>
	<path fill="none" stroke="#000000" stroke-linejoin="round" stroke-miterlimit="10" d="M388,356.9c-3.3,0-6,3.1-6,7c0,3.9,2.7,7,6,7
	"/>
	<polyline fill="none" stroke="#000000" stroke-linejoin="round" stroke-miterlimit="10" stroke-dasharray="4,3" points="
	407.1,466.9 341,466.9 341,370.9 "/>
	<rect x="407" y="459.9" fill="#FFFFFF" width="11" height="14"/>
	<rect x="407" y="459.9" fill="none" stroke="#000000" stroke-linejoin="round" stroke-miterlimit="10" width="11" height="14"/>
	<polyline fill="none" stroke="#000000" stroke-linejoin="round" stroke-miterlimit="10" points="407.1,460 389,460 389,370.9 "/>
	<path
		d="M303,191.9l-6,3l6,3V191.9z M306.1,194.4h-4v1h4V194.4z M313.1,194.4h-4v1h4V194.4z M320.1,194.4h-4v1h4V194.4z
	 M327.1,194.4h-4v1h4V194.4z M334.1,194.4h-4v1h4V194.4z M341.5,195.1v-0.1c0-0.3-0.2-0.5-0.5-0.5h-3.9v1h3.9l-0.5-0.5v0.1H341.5z
	 M341.5,202.1v-4h-1v4H341.5z M341.5,209.1v-4h-1v4H341.5z M341.5,216.1v-4h-1v4H341.5z M341.5,223.1v-4h-1v4H341.5z M341.5,230.1
	v-4h-1v4H341.5z M341.5,237.1v-4h-1v4H341.5z M341.5,244.1v-4h-1v4H341.5z M341.5,251.1v-4h-1v4H341.5z M341.5,258.1v-4h-1v4H341.5z
	 M341.5,265.1v-4h-1v4H341.5z M341.5,272.1v-4h-1v4H341.5z M341.5,279.1v-4h-1v4H341.5z M341.5,286.1v-4h-1v4H341.5z M341.5,293.1
	v-4h-1v4H341.5z M341.5,300.1v-4h-1v4H341.5z M341.5,307.1v-4h-1v4H341.5z M341.5,314.1v-4h-1v4H341.5z M341.5,321.1v-4h-1v4H341.5z
	 M341.5,328.1v-4h-1v4H341.5z M341.5,335.1v-4h-1v4H341.5z M341.5,342.1v-4h-1v4H341.5z M341.5,349.1v-4h-1v4H341.5z M341.5,356.1
	v-4h-1v4H341.5z"/>
	<path
		d="M401.1,191.9l6,3l-6,3V191.9z M396.8,194.4h4v1h-4V194.4z M389.8,194.4h4v1h-4V194.4z M382.8,194.4h4v1h-4V194.4z
	 M375.8,194.4h4v1h-4V194.4z M368.8,194.4h4v1h-4V194.4z M361.8,194.4h4v1h-4V194.4z M354.8,194.4h4v1h-4V194.4z M347.8,194.4h4v1
	h-4V194.4z M340.5,195.1v-0.1c0-0.3,0.2-0.5,0.5-0.5h3.9v1H341l0.5-0.5v0.1H340.5z M340.5,202.1v-4h1v4H340.5z M340.5,209.1v-4h1v4
	H340.5z M340.5,216.1v-4h1v4H340.5z M340.5,223.1v-4h1v4H340.5z M340.5,230.1v-4h1v4H340.5z M340.5,237.1v-4h1v4H340.5z
	 M340.5,244.1v-4h1v4H340.5z M340.5,251.1v-4h1v4H340.5z M340.5,258.1v-4h1v4H340.5z M340.5,265.1v-4h1v4H340.5z M340.5,272.1v-4h1
	v4H340.5z M340.5,279.1v-4h1v4H340.5z M340.5,286.1v-4h1v4H340.5z M340.5,293.1v-4h1v4H340.5z M340.5,300.1v-4h1v4H340.5z
	 M340.5,307.1v-4h1v4H340.5z M340.5,314.1v-4h1v4H340.5z M340.5,321.1v-4h1v4H340.5z M340.5,328.1v-4h1v4H340.5z M340.5,335.1v-4h1
	v4H340.5z M340.5,342.1v-4h1v4H340.5z M340.5,349.1v-4h1v4H340.5z M340.5,356.1v-4h1v4H340.5z"/>
	<rect x="407" y="267.9" fill="#FFFFFF" width="11" height="14"/>
	<rect x="407" y="267.9" fill="none" stroke="#000000" stroke-linejoin="round" stroke-miterlimit="10" width="11" height="14"/>
	<path
		d="M401,197.9l6-3l-6-3V197.9z M397.5,195.4h4v-1h-4V195.4z M390.5,195.4h4v-1h-4V195.4z M383.5,195.4h4v-1h-4V195.4z
	 M376.5,195.4h4v-1h-4V195.4z M369.5,195.4h4v-1h-4V195.4z M362.5,195.4h4v-1h-4V195.4z M355.5,195.4h4v-1h-4V195.4z M348.5,195.4h4
	v-1h-4V195.4z M341.5,195.4h4v-1h-4V195.4z M341.1,201v-4h-1v4H341.1z M341.1,208v-4h-1v4H341.1z M341.1,215v-4h-1v4H341.1z
	 M341.1,222v-4h-1v4H341.1z M341.1,229v-4h-1v4H341.1z M341.1,236v-4h-1v4H341.1z M341.1,243v-4h-1v4H341.1z M341.1,250v-4h-1v4
	H341.1z M341.1,257v-4h-1v4H341.1z M341.1,264v-4h-1v4H341.1z M341.1,271v-4h-1v4H341.1z M344,274.1h-3.4l0.5,0.5V274h-1v0.6
	c0,0.3,0.2,0.5,0.5,0.5h3.4V274.1z M351,274.1h-4v1h4V274.1z M358,274.1h-4v1h4V274.1z M365,274.1h-4v1h4V274.1z M372,274.1h-4v1h4
	V274.1z M379,274.1h-4v1h4V274.1z M386,274.1h-4v1h4V274.1z M393,274.1h-4v1h4V274.1z M400,274.1h-4v1h4V274.1z M407,274.1h-4v1h4
	V274.1z"/>
	<rect x="407" y="261.9" fill="#FFFFFF" width="155" height="44"/>
	<rect x="407" y="261.9" fill="none" stroke="#000000" stroke-linejoin="round" stroke-miterlimit="10" width="155" height="44"/>
	<rect x="443.6" y="285.3" fill-rule="evenodd" fill="#FFFFFF" width="3" height="15"/>
	<rect x="407" y="428.9" fill="#FFFFFF" width="155" height="62"/>
	<rect x="407" y="428.9" fill="none" stroke="#000000" stroke-linejoin="round" stroke-miterlimit="10" width="155" height="62"/>
	<rect x="407" y="85.9" fill="#FFFFFF" width="155" height="43"/>
	<rect x="407" y="85.9" fill="none" stroke="#000000" stroke-linejoin="round" stroke-miterlimit="10" width="155" height="43"/>
	<rect x="460.8" y="109.5" fill-rule="evenodd" fill="#FFFFFF" width="3" height="15"/>
	<rect x="604" y="84.9" fill="none" stroke="#000000" stroke-linejoin="round" stroke-miterlimit="10" width="155" height="45"/>
	<rect x="407" y="14.9" fill="#FFFFFF" width="155" height="43"/>
	<rect x="407" y="14.9" fill="none" stroke="#000000" stroke-linejoin="round" stroke-miterlimit="10" width="155" height="43"/>
	<path d="M487,79.5l-3,6l-3-6H487z M484.5,57.9l0,22.5h-1l0-22.5H484.5z"/>
	<path d="M487,158.6l-3,6l-3-6H487z M484.5,128.9l0,30.7h-1l0-30.7H484.5z"/>
	<path d="M599.1,97.9l6,3l-6,3V97.9z M563,100.4l37.1,0v1l-37.1,0V100.4z"/>
	<path d="M684.5,79.1l-3,6l-3-6H684.5z M563,36.4h118.5c0.3,0,0.5,0.2,0.5,0.5v43.2h-1V36.9l0.5,0.5H563V36.4z"/>
	<path d="M569,119.9l-6-3l6-3V119.9z M605.1,117.4l-37.1,0v-1l37.1,0V117.4z"/>
	<path
		d="M400.8,103.9l6,3l-6,3V103.9z M398.9,106.4h2.9v1h-2.9V106.4z M391.9,106.4h4v1h-4V106.4z M384.9,106.4h4v1h-4V106.4z
	 M377.9,106.4h4v1h-4V106.4z M370.9,106.4h4v1h-4V106.4z M363.9,106.4h4v1h-4V106.4z M356.9,106.4h4v1h-4V106.4z M349.9,106.4h4v1
	h-4V106.4z M342.9,106.4h4v1h-4V106.4z M339.5,111v-4h1v4H339.5z M339.5,118v-4h1v4H339.5z M339.5,125v-4h1v4H339.5z M339.5,132v-4
	h1v4H339.5z M339.5,139v-4h1v4H339.5z M339.5,146v-4h1v4H339.5z M339.5,153v-4h1v4H339.5z M339.5,160v-4h1v4H339.5z M339.5,167v-4h1
	v4H339.5z M339.5,174v-4h1v4H339.5z M339.5,181v-4h1v4H339.5z M339.5,188v-4h1v4H339.5z M339.5,195v-4h1v4H339.5z"/>
	<rect x="117.5" y="170.4" fill-rule="evenodd" fill="none" width="180" height="48.7"/>
	<text transform="matrix(1 0 0 1 124.9933 182.4207)">
		<tspan x="0" y="0" font-size="14px">Encryption/Decryption Key
		</tspan>
		<tspan x="28.4" y="16" font-size="14px">for Signature Key
		</tspan>
		<tspan x="44.7" y="32" font-size="14px">'Generation'</tspan>
	</text>
	<rect x="124" y="340.1" fill-rule="evenodd" fill="none" width="166.1" height="48.7"/>
	<text transform="matrix(1 0 0 1 124.5467 352.106)">
		<tspan x="0" y="0" font-size="14px">Encryption/Decryption Key
		</tspan>
		<tspan x="28.4" y="16" font-size="14px">for Signature Key
		</tspan>
		<tspan x="58.8" y="32" font-size="14px">'In-Use'</tspan>
	</text>
	<rect x="407.1" y="19.2" fill-rule="evenodd" fill="none" width="155.9" height="34.5"/>
	<text transform="matrix(1 0 0 1 445.3527 31.1891)">
		<tspan x="0" y="0" font-size="14px">Master Seed</tspan>
		<tspan x="1.9" y="16" font-size="14px">'Generation'</tspan>
	</text>
	<rect x="407.1" y="89.7" fill-rule="evenodd" fill="none" width="155.9" height="34.5"/>
	<text transform="matrix(1 0 0 1 445.3527 101.689)">
		<tspan x="0" y="0" font-size="14px">Master Seed</tspan>
		<tspan x="16" y="16" font-size="14px">'In-Use'</tspan>
	</text>
	<rect x="603.5" y="434.8" fill-rule="evenodd" fill="none" width="155.9" height="49.2"/>
	<text transform="matrix(1 0 0 1 632.8415 446.8533)">
		<tspan x="0" y="0" font-size="14px">Verification Key
		</tspan>
		<tspan x="24.9" y="16" font-size="14px">'In-Use'</tspan>
		<tspan x="-19.8" y="32" font-size="14px">(Receive Transaction)</tspan>
	</text>
	<rect x="605.1" y="90.2" fill-rule="evenodd" fill="none" width="153.6" height="34.5"/>
	<text transform="matrix(1 0 0 1 642.2167 102.1891)">
		<tspan x="0" y="0" font-size="14px">Master Seed</tspan>
		<tspan x="0" y="16" font-size="14px">'Suspension'</tspan>
	</text>
	<rect x="407.1" y="170.3" fill-rule="evenodd" fill="none" width="154.9" height="49.8"/>
	<text transform="matrix(1 0 0 1 426.9387 182.3565)">
		<tspan x="0" y="0" font-size="14px">Signature Key and</tspan>
		<tspan x="-12" y="16" font-size="14px">Verification Key (Pair)
		</tspan>
		<tspan x="19.9" y="32" font-size="14px">'Generation'</tspan>
	</text>
	<rect x="406" y="268.8" fill-rule="evenodd" fill="none" width="155.9" height="34.5"/>
	<text transform="matrix(1 0 0 1 440.0037 280.8386)">
		<tspan x="0" y="0" font-size="14px">Signature Key
		</tspan>
		<tspan x="2.3" y="16" font-size="14px">'In-Activation'</tspan>
	</text>
	<rect x="407" y="434.8" fill-rule="evenodd" fill="none" width="155" height="50.3"/>
	<text transform="matrix(1 0 0 1 440.5036 446.8139)">
		<tspan x="0" y="0" font-size="14px">Signature Key
		</tspan>
		<tspan x="20.2" y="16" font-size="14px">'In-Use'</tspan>
		<tspan x="-21" y="32" font-size="14px">(Sign to Transaction)</tspan>
	</text>
	<rect x="407.1" y="347.2" fill-rule="evenodd" fill="none" width="154.9" height="34.5"/>
	<text transform="matrix(1 0 0 1 440.5666 359.1891)">
		<tspan x="0" y="0" font-size="14px">Signature Key
		</tspan>
		<tspan x="10.5" y="16" font-size="14px">'Activation'</tspan>
	</text>
	<rect x="406.6" y="540.1" fill-rule="evenodd" fill="none" width="155.9" height="16.7"/>
	<text transform="matrix(1 0 0 1 444.8459 552.1461)" font-size="14px">'Suspension'</text>
</svg>
