<?xml version="1.0" encoding="utf-8"?>
<svg version="1.1" xmlns="http://www.w3.org/2000/svg" xmlns:xlink="http://www.w3.org/1999/xlink" width="693.8px" height="435.6px" viewBox="0 0 693.8 435.6"
	 xml:space="preserve">
<rect x="38.6" y="15.8" fill="none" stroke="#000000" stroke-linejoin="round" stroke-miterlimit="10" width="179" height="61"/>
<rect x="91" y="56.1" fill-rule="evenodd"  fill="#FFFFFF" width="3" height="15"/>
<rect x="160.8" y="56.1" fill-rule="evenodd"  fill="#FFFFFF" width="3" height="15"/>
<rect x="38.6" y="183.8" fill="none" stroke="#000000" stroke-linejoin="round" stroke-miterlimit="10" width="179" height="62"/>
<rect x="104.5" y="224.8" fill-rule="evenodd"  fill="#FFFFFF" width="3" height="15"/>
<rect x="118.8" y="224.8" fill-rule="evenodd"  fill="#FFFFFF" width="4.5" height="15"/>
<rect x="327.6" y="15.8" fill="none" stroke="#000000" stroke-linejoin="round" stroke-miterlimit="10" width="155" height="61"/>
<rect x="327.6" y="192.8" fill="none" stroke="#000000" stroke-linejoin="round" stroke-miterlimit="10" width="155" height="44"/>
<rect x="327.6" y="376.8" fill="none" stroke="#000000" stroke-linejoin="round" stroke-miterlimit="10" width="155" height="45"/>
<rect x="439.5" y="391.5" fill-rule="evenodd"  fill="#FFFFFF" width="3" height="15"/>
<rect x="524.6" y="279.8" fill="none" stroke="#000000" stroke-linejoin="round" stroke-miterlimit="10" width="155" height="62"/>
<rect x="592.7" y="303.8" fill-rule="evenodd"  fill="#FFFFFF" width="4.5" height="15"/>
<path d="M130.6,178.1l-3,6l-3-6H130.6z M128.1,76.8l0,102.3h-1l0-102.3H128.1z"/>
<path d="M407.6,106.4l-3,6l-3-6H407.6z M405.1,76.8l0,30.6h-1l0-30.6H405.1z"/>
<path d="M407.6,186.4l-3,6l-3-6H407.6z M405.1,156.8l0,30.6h-1l0-30.6H405.1z"/>
<path d="M407.6,273.8l-3,6l-3-6H407.6z M405.1,236.8l0,38.1h-1l0-38.1H405.1z"/>
<path d="M321.3,395.8l6,3l-6,3V395.8z M38.6,46.3H19.8l0.5-0.5v353l-0.5-0.5h302.5v1H19.8c-0.3,0-0.5-0.2-0.5-0.5v-353
	c0-0.3,0.2-0.5,0.5-0.5h18.7V46.3z"/>
<path d="M321.3,396.1l6,3l-6,3V396.1z M38.6,215.3H19.8l0.5-0.5v184.3l-0.5-0.5h302.5v1H19.8c-0.3,0-0.5-0.2-0.5-0.5V214.8
	c0-0.3,0.2-0.5,0.5-0.5h18.7V215.3z"/>
<path d="M605.2,273.8l-3,6l-3-6H605.2z M482.6,45.3h119.6c0.3,0,0.5,0.2,0.5,0.5v229h-1v-229l0.5,0.5H482.6V45.3z"/>
<path d="M488.6,402.3l-6-3l6-3V402.3z M602.7,341.8v57.5c0,0.3-0.2,0.5-0.5,0.5H487.6v-1h114.6l-0.5,0.5v-57.5H602.7z"/>
<path d="M488.6,402.2l-6-3l6-3V402.2z M482.6,134.3h18.8c0.3,0,0.5,0.2,0.5,0.5v264.4c0,0.3-0.2,0.5-0.5,0.5h-13.7v-1h13.7l-0.5,0.5
	V134.8l0.5,0.5h-18.8V134.3z"/>
<path d="M488.6,402.1l-6-3l6-3V402.1z M482.6,214.3h18.8c0.3,0,0.5,0.2,0.5,0.5v184.3c0,0.3-0.2,0.5-0.5,0.5h-13.7v-1h13.7l-0.5,0.5
	V214.8l0.5,0.5h-18.8V214.3z"/>
<path fill="none" stroke="#000000" stroke-linejoin="round" stroke-miterlimit="10" stroke-dasharray="4,3" d="M261.1,207.8
	c-3,0-5.5,3.1-5.5,7c0,3.9,2.4,7,5.5,7"/>
<path d="M488.6,402l-6-3l6-3V402z M482.6,310.3h18.8c0.3,0,0.5,0.2,0.5,0.5V399c0,0.3-0.2,0.5-0.5,0.5h-13.7v-1h13.7l-0.5,0.5v-88.3
	l0.5,0.5h-18.8V310.3z"/>
<path d="M321.6,131.8l6,3l-6,3V131.8z M308.1,207.1v-72.3c0-0.3,0.2-0.5,0.5-0.5h14.1v1h-14.1l0.5-0.5v72.3H308.1z"/>
<path d="M321.7,211.8l6,3l-6,3V211.8z M217.6,214.3l105.1,0v1l-105.1,0V214.3z"/>
<path fill="none" stroke="#000000" stroke-linejoin="round" stroke-miterlimit="10" d="M308.6,207.8c-3.3,0-6,3.1-6,7
	c0,3.9,2.7,7,6,7"/>
<polyline fill="none" stroke="#000000" stroke-linejoin="round" stroke-miterlimit="10" stroke-dasharray="4,3" points="
	327.7,317.8 261.6,317.8 261.6,221.8 "/>
<rect x="327.6" y="310.8" fill="#000000" width="11" height="14"/>
<rect x="327.6" y="310.8" fill="none" stroke="#000000" stroke-linejoin="round" stroke-miterlimit="10" width="11" height="14"/>
<polyline fill="none" stroke="#000000" stroke-linejoin="round" stroke-miterlimit="10" points="327.7,310.8 309.6,310.8
	309.6,221.8 "/>
<path d="M223.6,42.8l-6,3l6,3V42.8z M226.7,45.3h-4v1h4V45.3z M233.7,45.3h-4v1h4V45.3z M240.7,45.3h-4v1h4V45.3z M247.7,45.3h-4v1
	h4V45.3z M254.7,45.3h-4v1h4V45.3z M262.1,45.9v-0.1c0-0.3-0.2-0.5-0.5-0.5h-3.9v1h3.9l-0.5-0.5v0.1H262.1z M262.1,52.9v-4h-1v4
	H262.1z M262.1,59.9v-4h-1v4H262.1z M262.1,66.9v-4h-1v4H262.1z M262.1,73.9v-4h-1v4H262.1z M262.1,80.9v-4h-1v4H262.1z M262.1,87.9
	v-4h-1v4H262.1z M262.1,94.9v-4h-1v4H262.1z M262.1,101.9v-4h-1v4H262.1z M262.1,108.9v-4h-1v4H262.1z M262.1,115.9v-4h-1v4H262.1z
	 M262.1,122.9v-4h-1v4H262.1z M262.1,129.9v-4h-1v4H262.1z M262.1,136.9v-4h-1v4H262.1z M262.1,143.9v-4h-1v4H262.1z M262.1,150.9
	v-4h-1v4H262.1z M262.1,157.9v-4h-1v4H262.1z M262.1,164.9v-4h-1v4H262.1z M262.1,171.9v-4h-1v4H262.1z M262.1,178.9v-4h-1v4H262.1z
	 M262.1,185.9v-4h-1v4H262.1z M262.1,192.9v-4h-1v4H262.1z M262.1,199.9v-4h-1v4H262.1z M262.1,206.9v-4h-1v4H262.1z"/>
<path d="M321.7,42.8l6,3l-6,3V42.8z M317.4,45.3h4v1h-4V45.3z M310.4,45.3h4v1h-4V45.3z M303.4,45.3h4v1h-4V45.3z M296.4,45.3h4v1
	h-4V45.3z M289.4,45.3h4v1h-4V45.3z M282.4,45.3h4v1h-4V45.3z M275.4,45.3h4v1h-4V45.3z M268.4,45.3h4v1h-4V45.3z M261.1,45.9v-0.1
	c0-0.3,0.2-0.5,0.5-0.5h3.9v1h-3.9l0.5-0.5v0.1H261.1z M261.1,52.9v-4h1v4H261.1z M261.1,59.9v-4h1v4H261.1z M261.1,66.9v-4h1v4
	H261.1z M261.1,73.9v-4h1v4H261.1z M261.1,80.9v-4h1v4H261.1z M261.1,87.9v-4h1v4H261.1z M261.1,94.9v-4h1v4H261.1z M261.1,101.9v-4
	h1v4H261.1z M261.1,108.9v-4h1v4H261.1z M261.1,115.9v-4h1v4H261.1z M261.1,122.9v-4h1v4H261.1z M261.1,129.9v-4h1v4H261.1z
	 M261.1,136.9v-4h1v4H261.1z M261.1,143.9v-4h1v4H261.1z M261.1,150.9v-4h1v4H261.1z M261.1,157.9v-4h1v4H261.1z M261.1,164.9v-4h1
	v4H261.1z M261.1,171.9v-4h1v4H261.1z M261.1,178.9v-4h1v4H261.1z M261.1,185.9v-4h1v4H261.1z M261.1,192.9v-4h1v4H261.1z
	 M261.1,199.9v-4h1v4H261.1z M261.1,206.9v-4h1v4H261.1z"/>
<path d="M321.6,48.8l6-3l-6-3V48.8z M318.1,46.3h4v-1h-4V46.3z M311.1,46.3h4v-1h-4V46.3z M304.1,46.3h4v-1h-4V46.3z M297.1,46.3h4
	v-1h-4V46.3z M290.1,46.3h4v-1h-4V46.3z M283.1,46.3h4v-1h-4V46.3z M276.1,46.3h4v-1h-4V46.3z M269.1,46.3h4v-1h-4V46.3z
	 M262.1,46.3h4v-1h-4V46.3z M261.7,51.9v-4h-1v4H261.7z M261.7,58.9v-4h-1v4H261.7z M261.7,65.9v-4h-1v4H261.7z M261.7,72.9v-4h-1v4
	H261.7z M261.7,79.9v-4h-1v4H261.7z M261.7,86.9v-4h-1v4H261.7z M261.7,93.9v-4h-1v4H261.7z M261.7,100.9v-4h-1v4H261.7z
	 M261.7,107.9v-4h-1v4H261.7z M261.7,114.9v-4h-1v4H261.7z M261.7,121.9v-4h-1v4H261.7z M264.6,125h-3.4l0.5,0.5v-0.6h-1v0.6
	c0,0.3,0.2,0.5,0.5,0.5h3.4V125z M271.6,125h-4v1h4V125z M278.6,125h-4v1h4V125z M285.6,125h-4v1h4V125z M292.6,125h-4v1h4V125z
	 M299.6,125h-4v1h4V125z M306.6,125h-4v1h4V125z M313.6,125h-4v1h4V125z M320.6,125h-4v1h4V125z M327.6,125h-4v1h4V125z"/>
<rect x="327.6" y="112.8" fill="none" stroke="#000000" stroke-linejoin="round" stroke-miterlimit="10" width="155" height="44"/>
<rect x="364.2" y="136.1" fill-rule="evenodd"  fill="#FFFFFF" width="3" height="15"/>
<rect x="378.4" y="136.1" fill-rule="evenodd"  fill="#FFFFFF" width="4.5" height="15"/>
<rect x="327.6" y="279.8" fill="#FFFFFF" width="155" height="62"/>
<rect x="327.6" y="279.8" fill="none" stroke="#000000" stroke-linejoin="round" stroke-miterlimit="10" width="155" height="62"/>
<rect x="381.4" y="303.8" fill-rule="evenodd"  fill="#FFFFFF" width="3" height="15"/>
<rect x="395.7" y="303.8" fill-rule="evenodd"  fill="#FFFFFF" width="4.5" height="15"/>
<rect x="40.4" y="21.9" fill-rule="evenodd"  fill="none" width="174" height="54.1"/>
<text transform="matrix(1 0 0 1 44.9051 33.8844)"><tspan x="0" y="0"  font-size="14px">Encryption/Decryption Key </tspan><tspan x="28.4" y="16"  font-size="14px">for Signature Key </tspan><tspan x="44.7" y="32"  font-size="14px">'Generation'</tspan></text>
<rect x="328.4" y="22.5" fill-rule="evenodd"  fill="none" width="153.4" height="46.6"/>
<text transform="matrix(1 0 0 1 347.5177 34.5019)"><tspan x="0" y="0"  font-size="14px">Signature Key and </tspan><tspan x="-10.1" y="16"  font-size="14px">Verification Key (Pair)  </tspan><tspan x="19.9" y="32"  font-size="14px">'Generation'</tspan></text>
<rect x="333.2" y="117.9" fill="none" width="143.8" height="39.7"/>
<text transform="matrix(1 0 0 1 361.1421 129.9267)"><tspan x="0" y="0"  font-size="14px">Signature Key  </tspan><tspan x="2.3" y="16"  font-size="14px">'In-Activation'</tspan></text>
<rect x="327" y="199.5" fill-rule="evenodd"  fill="none" width="156.2" height="31.5"/>
<text transform="matrix(1 0 0 1 361.1413 211.5363)"><tspan x="0" y="0"  font-size="14px">Signature Key  </tspan><tspan x="10.5" y="16"  font-size="14px">'Activation'</tspan></text>
<rect x="330.1" y="288.4" fill-rule="evenodd"  fill="none" width="150" height="45.9"/>
<text transform="matrix(1 0 0 1 361.1414 300.3939)"><tspan x="0" y="0"  font-size="14px">Signature Key  </tspan><tspan x="20.2" y="16"  font-size="14px">'In-Use'</tspan><tspan x="-21" y="32"  font-size="14px">(Sign to Transaction)</tspan></text>
<text transform="matrix(1 0 0 1 365.4207 403.319)"  font-size="14px">'Suspension'</text>
<rect x="527.5" y="286.4" fill-rule="evenodd"  fill="none" width="147.3" height="54.1"/>
<text transform="matrix(1 0 0 1 552.5182 298.3931)"><tspan x="0" y="0"  font-size="14px">Verification Key  </tspan><tspan x="24.9" y="16"  font-size="14px">'In-Use'</tspan><tspan x="-19.8" y="32"  font-size="14px">(Receive Transaction)</tspan></text>
<rect x="39" y="191.6" fill-rule="evenodd"  fill="none" width="176" height="47.3"/>
<text transform="matrix(1 0 0 1 44.5723 203.6589)"><tspan x="0" y="0"  font-size="14px">Encryption/Decryption Key </tspan><tspan x="28.4" y="16"  font-size="14px">for Signature Key  </tspan><tspan x="58.8" y="32"  font-size="14px">'In-Use'</tspan></text>
</svg>
